<?xml version="1.0" encoding="utf-8"?><svg version="1.1" id="Layer_1" xmlns="http://www.w3.org/2000/svg" xmlns:xlink="http://www.w3.org/1999/xlink" x="0px" y="0px" viewBox="0 0 106.6 122.88" style="enable-background:new 0 0 106.6 122.88" xml:space="preserve"><g><path d="M24.03,92.05c0.41,0.93-0.01,2.01-0.94,2.42c-1.91,0.84-3.89,1.14-5.92,0.94c-1.02-0.1-2.04-0.33-3.07-0.68 c0.04,0.42,0.09,0.84,0.15,1.25c0.18,1.35,0.42,2.73,0.73,4.14c0.11,0.49,0.01,0.97-0.23,1.36c-1.05,2.11-1.58,3.88-1.67,5.34 c-0.1,1.53,0.31,2.68,1.12,3.5c0.89,0.91,2.3,1.51,4.08,1.84c2.83,0.53,6.45,0.37,10.39-0.34c1.41-0.25,2.92-0.57,4.49-0.96 c1.44-0.36,2.88-0.76,4.3-1.22c2.28-0.73,4.52-1.6,6.56-2.61c1.8-0.89,3.44-1.88,4.81-2.98c0.79-0.63,1.95-0.5,2.58,0.29 c0.63,0.79,0.5,1.95-0.29,2.58c-1.58,1.26-3.45,2.39-5.48,3.4c-1.95,0.96-4.06,1.81-6.22,2.53c0.04,1.22-0.01,2.44-0.13,3.67 c-0.17,1.7-0.47,3.37-0.91,5c-0.26,0.98-1.27,1.56-2.25,1.3c-0.98-0.26-1.56-1.27-1.3-2.25c0.39-1.47,0.67-2.94,0.81-4.4 c0.07-0.73,0.11-1.47,0.12-2.21c-0.58,0.16-1.16,0.31-1.73,0.45c-1.58,0.39-3.17,0.73-4.72,1c-4.37,0.78-8.44,0.96-11.71,0.34 c-2.49-0.47-4.56-1.41-6.01-2.88c-1.54-1.56-2.34-3.64-2.17-6.3c0.12-1.81,0.7-3.9,1.84-6.3c-0.26-1.23-0.47-2.51-0.65-3.83 c-0.2-1.5-0.33-3.02-0.38-4.56h0l0-0.03c-0.02-0.07-0.03-0.14-0.03-0.21c-0.27-2.81-0.3-5.55-0.34-8.32l-0.01-0.77l-4.29-0.16 l-0.04,0c-1.14-0.03-2.16-0.36-3.01-0.92c-0.81-0.53-1.46-1.26-1.89-2.14C0.2,78.49-0.02,77.51,0,76.44 c0.03-1.48,0.53-3.14,1.62-4.84l4.61-9.42c2.26-4.62,2.24-5.23,2.14-7.66c-0.04-1.09-0.1-2.48-0.03-4.57 c0.08-2.49,0.36-4.87,0.9-7.1c0.38-1.59,0.9-3.1,1.56-4.52l-8.4-3.66c-0.93-0.4-1.35-1.48-0.95-2.41c0.06-0.13,0.12-0.24,0.2-0.35 l0,0c20-27.26,42.6-34.77,61.7-31c11.16,2.2,21.1,8.26,28.63,16.5c7.52,8.22,12.63,18.62,14.15,29.51 c2.49,17.91-4.7,37.09-26.83,50.07c-0.2,0.11-0.4,0.19-0.61,0.23c0.01,2.73,0.18,5.37,0.5,7.94c0.62,5.07,1.81,9.82,3.49,14.28 c0.36,0.95-0.12,2-1.07,2.36c-0.95,0.36-2-0.12-2.36-1.07c-1.79-4.75-3.05-9.78-3.7-15.13c-0.65-5.33-0.7-10.99-0.08-17.03 c0.1-1.01,1-1.74,2.01-1.64c1.01,0.1,1.74,1,1.64,2.01c-0.14,1.38-0.25,2.74-0.32,4.08c19.59-12.07,25.97-29.42,23.72-45.6 c-1.41-10.15-6.19-19.86-13.21-27.54C82.27,12.2,73.02,6.56,62.65,4.51C45.25,1.08,24.63,7.84,5.99,32.24l7.99,3.49 c0.11,0.04,0.21,0.09,0.32,0.15c0.87,0.52,1.15,1.65,0.62,2.52c-0.97,1.61-1.66,3.4-2.12,5.32c-0.48,1.98-0.72,4.11-0.8,6.35 c-0.06,1.95-0.01,3.28,0.03,4.31c0.13,3.15,0.16,3.95-2.51,9.41l-4.62,9.45c-0.04,0.09-0.09,0.18-0.14,0.27 c-0.73,1.12-1.07,2.14-1.08,3c-0.01,0.46,0.08,0.87,0.24,1.2C4.04,78,4.25,78.24,4.5,78.4c0.3,0.2,0.68,0.31,1.12,0.33l0.07,0 l6.02,0.22v0c0.97,0.03,1.75,0.82,1.77,1.79c0.02,0.82,0.03,1.68,0.04,2.53c0.03,2.46,0.07,4.91,0.27,7.37 c1.29,0.61,2.54,0.99,3.75,1.11c1.4,0.14,2.76-0.07,4.08-0.65C21.61,91.11,23.86,91.65,24.03,92.05L24.03,92.05z M55.6,24.05 l-0.01-0.02l0-0.01l0-0.01l-0.01-0.02l0,0l0,0c-0.01-0.04-0.03-0.08-0.04-0.13c-0.75-3.01-2.19-4.39-3.69-4.7 c-0.99-0.21-2.03,0.03-2.93,0.55c-0.9,0.53-1.63,1.33-1.97,2.26c-0.46,1.24-0.19,2.77,1.36,4.21c0.62,0.58,0.66,1.55,0.08,2.18 c-0.58,0.62-1.55,0.66-2.18,0.08c-1.22-1.13-1.96-2.33-2.32-3.53c-0.97,0.22-1.94,0.86-2.71,1.81c-0.89,1.09-1.51,2.56-1.57,4.25 c-0.02,0.45,0.01,0.92,0.07,1.41l0,0c0.08,0.59-0.18,1.19-0.72,1.52c-1.16,0.72-2.03,1.5-2.63,2.32c-0.74,1-1.07,2.05-1.09,3.07 c-0.01,1.03,0.3,2.05,0.87,2.98c0.48,0.78,1.14,1.49,1.93,2.08c0.56,0.38,0.82,1.1,0.59,1.77c-0.32,0.94-0.39,1.85-0.27,2.7 c0.17,1.22,0.74,2.33,1.51,3.23c0.78,0.9,1.76,1.57,2.77,1.91c0.43,0.14,0.85,0.23,1.26,0.24c0.61-2,2.27-4.01,5.44-5.63 c0.76-0.39,1.69-0.09,2.07,0.67c0.39,0.76,0.09,1.69-0.67,2.07c-2.93,1.5-4.03,3.22-4.03,4.73c0,1.18,0.67,2.28,1.64,3.04 c0.99,0.77,2.27,1.16,3.47,0.91c1.5-0.31,2.95-1.7,3.7-4.72c0.05-0.19,0.12-0.36,0.23-0.51V24.38 C55.7,24.28,55.64,24.17,55.6,24.05L55.6,24.05z M70.29,21.73c0.83-0.02,1.67,0.12,2.49,0.4c1.55,0.52,3.04,1.55,4.19,2.91 c1.16,1.37,1.98,3.09,2.19,5c0.1,0.9,0.06,1.83-0.14,2.79c0.87,0.77,1.59,1.64,2.13,2.57c0.82,1.41,1.25,2.97,1.21,4.55 c-0.05,1.59-0.57,3.19-1.66,4.66c-0.7,0.94-1.62,1.83-2.78,2.62c0.12,2.47-0.61,4.68-1.79,6.39c-1.32,1.92-3.24,3.21-5.23,3.56 c-0.42,1.74-1.57,3.28-3.06,4.34c-1.85,1.33-4.26,1.95-6.47,1.34c-1.64-0.45-3.14-1.55-4.16-3.49c-1.24,2.13-2.95,3.25-4.75,3.63 c-2.13,0.44-4.33-0.21-6-1.51c-1.35-1.05-2.36-2.54-2.7-4.23c-0.7-0.03-1.41-0.16-2.1-0.4c-1.51-0.51-2.97-1.5-4.11-2.82 c-1.14-1.32-1.98-2.98-2.24-4.83c-0.14-0.98-0.11-2,0.11-3.06c-0.76-0.68-1.41-1.46-1.93-2.3c-0.87-1.41-1.35-3-1.33-4.63 c0.02-1.65,0.54-3.31,1.68-4.86c0.67-0.92,1.56-1.79,2.69-2.59c-0.02-0.32-0.02-0.64-0.01-0.95c0.09-2.41,0.98-4.52,2.27-6.1 c1.34-1.63,3.13-2.7,4.97-2.96l0.01,0c0.07-0.3,0.15-0.6,0.26-0.89c0.6-1.62,1.82-3,3.33-3.87c1.51-0.88,3.33-1.27,5.1-0.9 c1.71,0.36,3.34,1.39,4.57,3.33c1.22-1.94,2.86-2.97,4.57-3.33c1.61-0.33,3.26-0.05,4.69,0.67c1.4,0.71,2.61,1.84,3.34,3.21 C69.93,20.56,70.16,21.14,70.29,21.73L70.29,21.73z M70.84,54.04c1.02-0.32,2.01-1.08,2.75-2.16c0.92-1.33,1.44-3.12,1.19-5.12 c-0.14-0.64,0.14-1.31,0.73-1.66c1.21-0.71,2.1-1.49,2.71-2.32c0.69-0.94,1.03-1.93,1.05-2.91c0.03-0.99-0.25-1.98-0.8-2.91 c-0.49-0.84-1.2-1.62-2.07-2.28c-0.57-0.38-0.84-1.1-0.61-1.78c0.3-0.88,0.38-1.73,0.29-2.53c-0.14-1.26-0.69-2.41-1.48-3.33 c-0.79-0.93-1.79-1.63-2.82-1.98c-0.54-0.18-1.08-0.27-1.58-0.23c-0.26,0.92-0.75,1.84-1.51,2.74c-0.55,0.65-1.52,0.74-2.17,0.19 c-0.65-0.55-0.74-1.52-0.19-2.17c1.2-1.43,1.21-2.93,0.58-4.1c-0.44-0.81-1.16-1.49-2.01-1.92c-0.83-0.42-1.77-0.59-2.67-0.41 c-1.31,0.27-2.57,1.35-3.37,3.62v31.95c0.15,0.19,0.25,0.42,0.29,0.68c0.46,2.79,1.67,4.13,3.03,4.51c1.26,0.34,2.7-0.06,3.85-0.88 c1.13-0.81,1.94-2,1.95-3.25c0.01-1.42-1.03-3.03-3.81-4.45c-0.76-0.39-1.06-1.32-0.67-2.07c0.39-0.76,1.32-1.06,2.07-0.67 C68.68,50.15,70.28,52.09,70.84,54.04L70.84,54.04z M44.3,31.78c0.61-0.6,1.59-0.59,2.18,0.02c0.6,0.61,0.59,1.59-0.02,2.18 c-1.36,1.34-2.08,3.08-2.15,4.85c-0.08,1.83,0.52,3.7,1.76,5.25c0.53,0.66,0.43,1.64-0.24,2.17c-0.66,0.53-1.64,0.43-2.17-0.24 c-1.73-2.14-2.55-4.75-2.44-7.3C41.33,36.18,42.35,33.7,44.3,31.78L44.3,31.78z M66.75,33.25c-0.69-0.5-0.85-1.47-0.34-2.16 c0.5-0.69,1.47-0.85,2.16-0.34c0.31,0.23,0.61,0.47,0.89,0.72c2.06,1.85,3.18,4.3,3.38,6.83c0.2,2.51-0.49,5.1-2.08,7.27 c-0.23,0.32-0.48,0.63-0.75,0.93c-0.57,0.63-1.55,0.69-2.18,0.11c-0.63-0.57-0.69-1.55-0.11-2.18c0.2-0.22,0.38-0.44,0.55-0.67 c1.14-1.56,1.64-3.42,1.5-5.22c-0.14-1.77-0.93-3.48-2.37-4.78C67.19,33.58,66.98,33.41,66.75,33.25L66.75,33.25z"/></g></svg>